#N canvas 110 87 958 871 12;
#X obj 135 68 inlet;
#X obj 592 87 inlet;
#X obj 349 495 inlet;
#X obj 270 390 inlet, f 8;
#X msg 496 68 0;
#X obj 817 150 audio_patcher edria_eveil_background.wav 0.1 3000, f 50;
#X text 295 86 background music;
#X obj 453 87 send kill_switch;
#X obj 648 577 r kill_switch;
#X obj 607 270 r kill_switch;
#X obj 222 68 r kill_switch;
#X obj 592 414 r kill_switch;
#X obj 607 510 r kill_switch;
#X text 563 524 channel 7;
#X obj 520 590 inlet;
#X obj 215 299 inlet;
#X text 488 319 channel 8;
#X text 519 422 channel 9;
#X text 525 624 channel 10;
#X obj 93 245 inlet;
#X obj 135 245 r kill_switch;
#X obj 88 670 +~;
#X obj 314 675 +~;
#X obj 95 892 dac~ 1 2 3 4 5 6 7 8 9 10;
#X obj 175 671 +~;
#X obj 261 671 +~;
#X obj 215 670 +~;
#X text 115 910 ? merite d'etre ajuste;
#X obj 685 512 random_patch;
#X obj 799 480 bng 15 250 50 0 empty empty empty 17 7 0 10 #fcfcfc #000000 #000000;
#X obj 699 420 random_patch;
#X obj 818 391 bng 15 250 50 0 empty empty empty 17 7 0 10 #fcfcfc #000000 #000000;
#X obj 709 617 random_patch;
#X obj 821 593 bng 15 250 50 0 empty empty empty 17 7 0 10 #fcfcfc #000000 #000000;
#X obj 656 320 random_patch;
#X obj 777 305 bng 15 250 50 0 empty empty empty 17 7 0 10 #fcfcfc #000000 #000000;
#X obj 423 155 inlet;
#X obj 328 150 r kill_switch;
#X obj 132 670 +~;
#X obj 830 175 audio_patcher edria_idle_stereo.wav 0.1 3000, f 42;
#X obj 436 190 bng 25 250 50 0 empty empty empty 17 7 0 10 #191919 #ffffff #ffffff;
#X obj 376 110 bng 25 250 50 0 empty empty empty 17 7 0 10 #191919 #ffffff #ffffff;
#X obj 33 224 bng 25 250 50 0 empty empty empty 17 7 0 10 #191919 #ffffff #ffffff;
#X obj 51 361 bng 25 250 50 0 empty empty empty 17 7 0 10 #191919 #ffffff #ffffff;
#X obj 129 510 bng 25 250 50 0 empty empty empty 17 7 0 10 #191919 #ffffff #ffffff;
#X obj 191 559 bng 25 250 50 0 empty empty empty 17 7 0 10 #191919 #ffffff #ffffff;
#X obj 52 68 r recet_bang;
#X obj 96 155 r recet_bang;
#X text 221 248 inlet_1;
#X text 400 113 inlet_2;
#X text 166 322 inlet_3;
#X text 213 413 inlet_4;
#X text 237 520 inlet_5;
#X text 225 154 inlet_6;
#X obj 301 637 bng 25 250 50 0 empty empty empty 17 7 0 10 #191919 #ffffff #ffffff;
#X text 301 614 inlet_7;
#X text 529 49 inlet_8;
#X obj 70 940 audio_patcher 4_tube_opal_fairy_sparkles.wav 0.5 700;
#X obj 543 186 bng 25 250 50 0 empty empty empty 17 7 0 10 #191919 #ffffff #ffffff;
#X obj 433 288 outlet;
#X obj 556 735 netreceive -u -b 40000;
#X obj 464 775 oscparse;
#X listbox 510 810 28 0 0 0 - - - 8;
#X msg 464 804 \$2;
#X obj 477 849 hsl 128 17 0 1 0 0 empty empty empty -2 -8 0 10 #191919 #ffffff #ffffff 0 1;
#X obj 316 802 *~;
#X obj 182 802 *~;
#X obj 137 802 *~;
#X obj 263 802 *~;
#X obj 217 802 *~;
#X obj 90 802 *~;
#X obj 561 940 netsend -u -b;
#X obj 736 728 netreceive -u -b 40003;
#X obj 736 755 oscparse;
#X msg 736 785 \$2;
#X obj 736 820 tgl 25 0 empty empty empty 17 7 0 10 #191919 #ffffff #ffffff 0 1;
#X obj 817 824 select 0;
#X msg 817 853 0;
#X msg 851 853 0.5;
#X obj 910 911 loadbang;
#X obj 731 895 oscformat on_off, f 19;
#X msg 740 940 connect 192.168.1.255 50000;
#X msg 740 960 disconnect 192.168.1.255 50000;
#X obj 509 885 oscformat audio_control, f 19;
#X obj 381 680 loadbang;
#X obj 910 728 loadbang;
#X msg 910 756 1;
#X msg 381 708 1;
#X obj 324 764 osc~ 440;
#X obj 346 724 saw~ 440;
#X msg 587 764 0.1;
#X obj 45 848 *~;
#X obj 65 110 background_audio_patcher edria_eveil_background.wav 0.2 3000, f 42;
#X obj 74 279 audio_patcher MSTR_edria_climax.wav 0.3 3000;
#X obj 96 190 background_audio_patcher edria_idle_stereo.wav 0.75 3000, f 42;
#X obj 295 545 background_audio_patcher 3_festoon_metallic.wav 0.6 700;
#X obj 290 460 background_audio_patcher 1_boules_water.wav 0.8 700;
#X obj 239 350 background_audio_patcher 4_tube_opal_fairy_sparkles.wav 0.5 700;
#X obj 349 642 background_audio_patcher 2_bande_led_liquid.wav 0.31 700;
#X obj 656 347 on_enter_sound fairy 0.5;
#X obj 692 442 on_enter_sound liquid 0.2;
#X obj 685 534 on_enter_sound metallic 0.3;
#X obj 709 639 on_enter_sound granular 0.5;
#X connect 0 0 41 0 empty;
#X connect 0 0 92 1 empty;
#X connect 1 0 4 0 empty;
#X connect 1 0 58 0 empty;
#X connect 2 0 45 0 empty;
#X connect 2 0 28 0 empty;
#X connect 2 0 95 1 empty;
#X connect 3 0 44 0 empty;
#X connect 3 0 30 0 empty;
#X connect 3 0 96 1 empty;
#X connect 4 0 7 0 empty;
#X connect 8 0 98 1 empty;
#X connect 9 0 97 1 empty;
#X connect 10 0 92 1 empty;
#X connect 11 0 96 1 empty;
#X connect 12 0 95 1 empty;
#X connect 14 0 54 0 empty;
#X connect 14 0 32 0 empty;
#X connect 14 0 98 1 empty;
#X connect 15 0 43 0 empty;
#X connect 15 0 34 0 empty;
#X connect 15 0 97 1 empty;
#X connect 19 0 42 0 empty;
#X connect 19 0 93 0 empty;
#X connect 20 0 93 0 empty;
#X connect 21 0 70 0 empty;
#X connect 22 0 65 0 empty;
#X connect 24 0 66 0 empty;
#X connect 25 0 68 0 empty;
#X connect 26 0 69 0 empty;
#X connect 28 0 101 0 empty;
#X connect 29 0 28 0 empty;
#X connect 30 0 100 0 empty;
#X connect 31 0 30 0 empty;
#X connect 32 0 102 0 empty;
#X connect 33 0 32 0 empty;
#X connect 34 0 99 0 empty;
#X connect 35 0 34 0 empty;
#X connect 36 0 40 0 empty;
#X connect 36 0 94 1 empty;
#X connect 37 0 94 1 empty;
#X connect 38 0 67 0 empty;
#X connect 46 0 92 0 empty;
#X connect 47 0 94 0 empty;
#X connect 47 0 95 0 empty;
#X connect 47 0 96 0 empty;
#X connect 47 0 97 0 empty;
#X connect 47 0 98 0 empty;
#X connect 60 0 61 0 empty;
#X connect 61 0 62 0 empty;
#X connect 61 0 63 0 empty;
#X connect 63 0 64 0 empty;
#X connect 64 0 65 1 48.................t....v3+++uK....L9+++i7+++Od++++H++++i2+++uz++++;
#X connect 64 0 68 1 48.................k....H5+++eI....h9+++q6++++P++++59+++Oz+++uz++++;
#X connect 64 0 83 0 empty;
#X connect 64 0 67 1 48.................O....P8++++C....T++++m4+++ut9+++Y9+++qq+++uw++++;
#X connect 64 0 66 1 empty;
#X connect 64 0 69 1 48.................d....X6+++uG....19+++O6+++OB++++y9+++iv+++uv++++;
#X connect 64 0 70 1 48.................G....b9++++A....m++++G2+++eh9+++w8+++mn+++uv++++;
#X connect 64 0 91 1 empty;
#X connect 65 0 23 9 empty;
#X connect 66 0 23 6 empty;
#X connect 67 0 23 0 empty;
#X connect 67 0 23 1 empty;
#X connect 67 0 23 2 empty;
#X connect 67 0 23 3 empty;
#X connect 67 0 23 4 empty;
#X connect 67 0 23 5 empty;
#X connect 67 0 23 6 empty;
#X connect 67 0 23 7 empty;
#X connect 67 0 23 8 empty;
#X connect 67 0 23 9 empty;
#X connect 68 0 23 8 empty;
#X connect 69 0 23 7 empty;
#X connect 70 0 23 0 empty;
#X connect 70 0 23 1 empty;
#X connect 70 0 23 2 empty;
#X connect 70 0 23 3 empty;
#X connect 70 0 23 4 empty;
#X connect 70 0 23 5 empty;
#X connect 72 0 73 0 empty;
#X connect 73 0 74 0 empty;
#X connect 74 0 75 0 empty;
#X connect 75 0 76 0 empty;
#X connect 75 0 80 0 empty;
#X connect 76 0 77 0 empty;
#X connect 76 1 78 0 empty;
#X connect 77 0 64 0 empty;
#X connect 78 0 64 0 empty;
#X connect 79 0 81 0 empty;
#X connect 80 0 71 0 empty;
#X connect 81 0 71 0 48......................T7+++O.....E++++29+++uS++++s++++6z+++e6++++;
#X connect 82 0 71 0 48......................T7+++O.....E++++m8+++uS++++Y++++6z+++e1++++;
#X connect 83 0 71 0 empty;
#X connect 84 0 87 0 empty;
#X connect 85 0 86 0 empty;
#X connect 86 0 75 0 empty;
#X connect 87 0 64 0 empty;
#X connect 89 0 91 0 empty;
#X connect 90 0 64 0 empty;
#X connect 92 0 21 0 empty;
#X connect 93 0 38 0 empty;
#X connect 93 1 59 0 empty;
#X connect 94 0 21 0 empty;
#X connect 95 0 25 0 empty;
#X connect 96 0 24 0 empty;
#X connect 97 0 22 0 empty;
#X connect 98 0 26 0 empty;
#X connect 99 0 22 0 empty;
#X connect 100 0 24 0 empty;
#X connect 101 0 25 0 empty;
#X connect 102 0 26 0 empty;
