#N canvas 733 172 450 300 climax 1;
#X obj 55 240 send osc_madmap;
#X msg 195 245 1, f 4;
#X obj 180 131 t b b b b;
#X obj 180 85 inlet;
#X obj 227 209 outlet;
#X obj 195 322 outlet;
#X text 270 208 kill all sound;
#X text 201 344 start climax sound;
#X text 51 264 start climax mdm;
#X obj 320 270 bng 30 250 50 0 empty empty empty 17 7 0 10 #fcfcfc #000000 #000000;
#X obj 346 345 t a b;
#X obj 397 368 bng 15 250 50 0 empty empty empty 17 7 0 10 #fcfcfc #000000 #000000;
#X msg 346 309 0;
#X msg 370 405 1;
#X obj 307 441 tgl 17 0 empty empty empty 0 -6 0 8 #fcfcfc #000000 #000000 0 1;
#X obj 303 515 send climax_spigot;
#X obj 463 371 loadbang;
#X obj 55 180 oscformat cues/selected/scenes/by_cell/col_1, f 19;
#X obj 425 460 select 1;
#X obj 440 515 outlet;
#X obj 393 326 delay 73 1 sec, f 10;
#X connect 1 0 5 0 empty;
#X connect 2 0 17 0 32.................D....L5+++OA....i9+++y.....;
#X connect 2 1 1 0 empty;
#X connect 2 2 9 0 32.................cA...zF...PW....sA...bG....;
#X connect 2 3 4 0 empty;
#X connect 3 0 2 0 empty;
#X connect 9 0 12 0 32.................E....nA...PA....Z....n.....;
#X connect 10 0 14 0 empty;
#X connect 10 1 20 0 empty;
#X connect 11 0 13 0 empty;
#X connect 12 0 10 0 empty;
#X connect 13 0 14 0 empty;
#X connect 14 0 15 0 empty;
#X connect 14 0 18 0 empty;
#X connect 16 0 13 0 empty;
#X connect 17 0 0 0 empty;
#X connect 18 0 19 0 empty;
#X connect 20 0 11 0 empty;
