#N canvas 827 239 527 327 12;
#X obj 206 349 readsf~, f 12;
#X floatatom 573 376 11 0 1 0 - - - 16;
#X obj 575 401 sig~;
#X obj 578 339 hsl 128 15 0 1 0 0 empty empty empty -2 -8 0 10 #fcfcfc #000000 #000000 0 1;
#X obj 202 460 *~;
#X msg 181 276 open \$1, f 9;
#X obj 202 498 outlet~;
#X msg 126 283 1, f 4;
#X obj 182 248 symbol \$1;
#X obj 246 60 inlet, f 6;
#X obj 576 302 float \$2;
#X obj 135 328 bng 15 250 50 0 empty empty empty 17 7 0 10 #fcfcfc #000000 #000000;
#X obj 248 85 tgl 15 0 empty empty empty 17 7 0 10 #fcfcfc #000000 #000000 0 1;
#X obj 65 248 bng 21 250 50 0 empty empty empty 17 7 0 10 #fcfcfc #000000 #000000;
#X obj 205 376 *~;
#X obj 352 215 line;
#X obj 353 281 sel 0;
#X obj 351 248 change;
#X obj 389 337 bng 15 250 50 0 empty empty empty 17 7 0 10 #fcfcfc #000000 #000000;
#X obj 345 110 t a b;
#X obj 346 184 pack;
#X obj 378 147 f \$3;
#X floatatom 418 233 5 0 0 0 - - - 0;
#X obj 575 252 loadbang;
#X obj 641 278 bng 15 250 50 0 empty empty empty 17 7 0 10 #fcfcfc #000000 #000000;
#X obj 105 215 sel 1 0;
#X obj 342 82 change;
#X obj 418 277 hsl 128 15 0 1 0 0 empty empty empty -2 -8 0 10 #fcfcfc #000000 #000000 0 1;
#X obj 292 391 t b b;
#X obj 93 69 loadbang;
#X msg 90 159 1, f 4;
#X obj 42 75 bng 25 250 50 0 empty empty empty 17 7 0 10 #191919 #ffffff #ffffff;
#X obj 270 248 bng 21 250 50 0 empty empty empty 17 7 0 10 #fcfcfc #000000 #000000;
#X obj 93 108 t b b b;
#X msg 181 147 0, f 4;
#X obj 65 25 inlet;
#X connect 0 0 14 0 empty;
#X connect 0 1 28 0 empty;
#X connect 1 0 2 0 empty;
#X connect 2 0 4 1 empty;
#X connect 3 0 1 0 empty;
#X connect 4 0 6 0 empty;
#X connect 5 0 0 0 empty;
#X connect 7 0 0 0 empty;
#X connect 7 0 11 0 empty;
#X connect 8 0 5 0 empty;
#X connect 9 0 12 0 empty;
#X connect 10 0 3 0 empty;
#X connect 12 0 26 0 empty;
#X connect 13 0 7 0 empty;
#X connect 14 0 4 0 empty;
#X connect 15 0 17 0 empty;
#X connect 15 0 22 0 empty;
#X connect 15 0 14 1 empty;
#X connect 16 0 18 0 empty;
#X connect 17 0 16 0 empty;
#X connect 19 0 20 0 empty;
#X connect 19 1 21 0 empty;
#X connect 20 0 15 0 empty;
#X connect 21 0 20 1 empty;
#X connect 22 0 27 0 empty;
#X connect 23 0 10 0 empty;
#X connect 24 0 10 0 empty;
#X connect 25 0 7 0 empty;
#X connect 26 0 19 0 empty;
#X connect 28 0 7 0 64.................L.....y+++OC....v7+++G5++++L++++g9+++Oy+++ef++++a8+++G3++++V++++A9+++C;
#X connect 28 1 8 0 80.................S....jA...vD....Y....75+++uz++++u9+++K8++++g++++F++++e3+++uw++++W8+++S3++++U++++D9+++60+++O;
#X connect 29 0 33 0 empty;
#X connect 30 0 25 0 empty;
#X connect 31 0 33 0 empty;
#X connect 32 0 8 0 48.......................A.........P....78+++Oq++++e++++y5+++e6++++;
#X connect 33 0 30 0 empty;
#X connect 33 1 8 0 empty;
#X connect 33 2 34 0 empty;
#X connect 34 0 0 0 empty;
#X connect 35 0 33 0 empty;
