#N canvas -2399 1 2380 1276 12;
#N canvas 0 50 450 250 (subpatch) 1;
#X text 0 0 plugdatainfo <?xml version="1.0" encoding="UTF-8"?> <plugdatainfo/>;
#X coords 0 1 100 -1 15 15 1 0 0;
#X restore 0 0 graph;
#X obj 39 77 oscparse;
#X listbox 128 121 30 0 0 0 - - - 0;
#X obj 39 121 list trim;
#X obj 39 150 route sonar;
#X obj 39 179 list split 2;
#X floatatom 37 245 5 0 0 0 - - - 12;
#X obj 39 214 route 1 2 3 4;
#N canvas 0 50 450 250 (subpatch) 0;
#X array sonar1 100 float 0;
#X coords 0 1 99 0 200 140 1;
#X restore 372 43 graph;
#X obj 14 77 bng 20 250 50 0 empty empty empty 0 -10 0 12 #fcfcfc #000000 #000000;
#X obj 65 269 abs_toarray sonar1;
#N canvas 0 50 450 250 (subpatch) 0;
#X array sonar3 100 float 0;
#X coords 0 1 99 0 200 140 1 0 0;
#X restore 370 204 graph;
#N canvas 0 50 450 250 (subpatch) 0;
#X array sonar2 100 float 0;
#X coords 0 1 99 0 200 140 1 0 0;
#X restore 583 44 graph;
#N canvas 0 50 450 250 (subpatch) 0;
#X array sonar4 100 float 0;
#X coords 0 1 99 0 200 140 1 0 0;
#X restore 583 206 graph;
#X obj 37 270 bng 20 250 50 0 empty empty empty 0 -10 0 12 #fcfcfc #000000 #000000;
#X obj 39 48 netreceive -u -b 25001;
#X obj 39 386 oscparse;
#X listbox 128 430 30 0 0 0 - - - 0;
#X obj 39 430 list trim;
#X obj 39 459 route sonar;
#X obj 39 488 list split 2;
#X floatatom 39 565 5 0 0 0 - - - 12;
#X obj 39 523 route 1 2 3 4;
#X obj 39 590 bng 20 250 50 0 empty empty empty 0 -10 0 12 #fcfcfc #000000 #000000;
#X obj 39 357 netreceive -u -b 25002;
#X obj 67 589 abs_toarray sonar2;
#X obj 398 424 oscparse;
#X listbox 487 468 30 0 0 0 - - - 0;
#X obj 398 468 list trim;
#X obj 398 497 route sonar;
#X obj 398 526 list split 2;
#X floatatom 431 633 5 0 0 0 - - - 12;
#X obj 398 561 route 1 2 3 4;
#X obj 434 671 bng 20 250 50 0 empty empty empty 0 -10 0 12 #fcfcfc #000000 #000000;
#X obj 398 395 netreceive -u -b 25003;
#X obj 462 670 abs_toarray sonar3;
#X obj 750 429 oscparse;
#X listbox 839 473 30 0 0 0 - - - 0;
#X obj 750 473 list trim;
#X obj 750 502 route sonar;
#X obj 750 531 list split 2;
#X floatatom 750 608 5 0 13 0 - - - 12;
#X obj 750 566 route 1 2 3 4;
#X obj 750 633 bng 20 250 50 0 empty empty empty 0 -10 0 12 #fcfcfc #000000 #000000;
#X obj 750 400 netreceive -u -b 25004;
#X obj 14 395 bng 20 250 50 0 empty empty empty 0 -10 0 12 #fcfcfc #000000 #000000;
#X obj 360 485 bng 20 250 50 0 empty empty empty 0 -10 0 12 #fcfcfc #000000 #000000;
#X obj 778 632 abs_toarray sonar4;
#X floatatom 477 605 5 0 0 0 - - - 12;
#X obj 337 647 print;
#X obj 431 603 f;
#X connect 1 0 2 0 empty;
#X connect 1 0 3 0 empty;
#X connect 1 0 9 0 empty;
#X connect 3 0 4 0 empty;
#X connect 4 0 5 0 empty;
#X connect 5 0 7 0 empty;
#X connect 6 0 10 0 empty;
#X connect 6 0 14 0 empty;
#X connect 7 0 6 0 empty;
#X connect 15 0 1 0 empty;
#X connect 16 0 17 0 empty;
#X connect 16 0 18 0 empty;
#X connect 16 0 45 0 empty;
#X connect 18 0 19 0 empty;
#X connect 19 0 20 0 empty;
#X connect 20 0 22 0 empty;
#X connect 21 0 23 0 empty;
#X connect 21 0 25 0 empty;
#X connect 22 1 21 0 empty;
#X connect 24 0 16 0 empty;
#X connect 26 0 27 0 empty;
#X connect 26 0 28 0 empty;
#X connect 26 0 46 0 empty;
#X connect 28 0 29 0 empty;
#X connect 29 0 30 0 empty;
#X connect 30 0 32 0 empty;
#X connect 31 0 33 0 empty;
#X connect 31 0 35 0 empty;
#X connect 32 2 49 0 empty;
#X connect 32 2 50 0 empty;
#X connect 34 0 26 0 empty;
#X connect 36 0 37 0 empty;
#X connect 36 0 38 0 empty;
#X connect 38 0 39 0 empty;
#X connect 39 0 40 0 empty;
#X connect 40 0 42 0 empty;
#X connect 41 0 43 0 empty;
#X connect 41 0 47 0 empty;
#X connect 42 3 41 0 empty;
#X connect 44 0 36 0 empty;
#X connect 50 0 31 0 empty;
