#N canvas 717 605 444 344 12;
#X obj 45 1 inlet;
#X obj 76 128 readsf~, f 8;
#X obj 41 172 *~;
#X floatatom 239 132 5 0 1 0 - - - 0;
#X obj 239 151 sig~;
#X obj 242 116 hsl 128 15 0 1 0 0 empty empty empty -2 -8 0 10 #fcfcfc
#000000 #000000 0 1;
#X obj 239 96 float \$2;
#X obj 239 77 loadbang;
#X obj 240 60 bng 15 250 50 0 empty empty empty 17 7 0 10 #fcfcfc #000000
#000000;
#X obj 40 197 outlet~;
#X obj 75 61 makefilename \$1%d.wav;
#X msg 77 99 open sons_on-enter/\$1;
#X obj 47 31 t b a;
#X obj 41 70 bng 15 250 50 0 empty empty empty 17 7 0 10 #fcfcfc #000000
#000000;
#X msg 39 96 1;
#X connect 0 0 12 0;
#X connect 1 0 2 0;
#X connect 2 0 9 0;
#X connect 3 0 4 0;
#X connect 4 0 2 1;
#X connect 5 0 3 0;
#X connect 6 0 5 0;
#X connect 7 0 6 0;
#X connect 8 0 6 0;
#X connect 10 0 11 0;
#X connect 11 0 1 0;
#X connect 12 0 13 0;
#X connect 12 1 10 0;
#X connect 13 0 14 0;
#X connect 14 0 1 0;
