#N canvas 511 199 418 570 12;
#X msg 19 80 bang;
#N canvas 244 377 450 300 display 1;
#X obj 46 191 tgl 15 0 empty empty empty 0 -6 0 8 #fcfcfc #000000 #000000 0 1;
#X obj 63 191 tgl 15 0 empty empty empty 0 -6 0 8 #fcfcfc #000000 #000000 0 1;
#X obj 80 191 tgl 15 0 empty empty empty 0 -6 0 8 #fcfcfc #000000 #000000 0 1;
#X obj 97 191 tgl 15 0 empty empty empty 0 -6 0 8 #fcfcfc #000000 #000000 0 1;
#X obj 114 191 tgl 15 0 empty empty empty 0 -6 0 8 #fcfcfc #000000 #000000 0 1;
#X obj 156 135 list append 0;
#X obj 46 134 list append 1;
#N canvas 0 0 450 300 count 0;
#X obj 158 193 + 1;
#X obj 122 158 until;
#X obj 122 194 f;
#X obj 122 101 inlet;
#X msg 167 157 0;
#X obj 122 120 t a b;
#X obj 122 224 outlet;
#X connect 0 0 2 1 empty;
#X connect 1 0 2 0 empty;
#X connect 2 0 0 0 empty;
#X connect 2 0 6 0 empty;
#X connect 3 0 5 0 empty;
#X connect 4 0 2 1 empty;
#X connect 5 0 1 0 empty;
#X connect 5 1 4 0 empty;
#X restore 156 90 pd count;
#X obj 46 160 route 0 1 2 3 4 5 6 7 8 9;
#X obj 46 36 inlet;
#X obj 156 37 inlet;
#X connect 5 0 8 0 empty;
#X connect 6 0 8 0 empty;
#X connect 7 0 5 0 empty;
#X connect 8 0 0 0 empty;
#X connect 8 1 1 0 empty;
#X connect 8 2 2 0 empty;
#X connect 8 3 3 0 empty;
#X connect 8 4 4 0 empty;
#X connect 9 0 6 0 empty;
#X connect 10 0 7 0 empty;
#X coords 0 -1 1 1 106 43 1 40 170;
#X restore 25 206 pd display;
#X msg 48 105 clear \, bang;
#X obj 64 155 t b b;
#X obj 64 175 bng 15 250 50 0 empty empty empty 0 -6 0 8 #fcfcfc #000000 #000000;
#X floatatom 87 132 5 0 0 0 - - - 0;
#X floatatom 16 301 5 0 0 0 - - - 0;
#X obj 20 133 c_urn 5;
#X obj 147 175 f 5;
#X obj 19 14 inlet;
#X obj 18 415 outlet;
#X obj 95 321 t b f;
#X obj 19 355 +;
#X floatatom 96 298 5 0 0 0 - - - 0;
#X floatatom 16 387 5 0 0 0 - - - 0;
#X obj 159 228 loadbang;
#X msg 139 267 1;
#X obj 19 45 select 1;
#X connect 0 0 7 0 empty;
#X connect 0 0 16 0 empty;
#X connect 2 0 7 0 empty;
#X connect 3 0 2 0 empty;
#X connect 3 0 4 0 empty;
#X connect 3 1 8 0 empty;
#X connect 5 0 7 1 empty;
#X connect 5 0 8 0 empty;
#X connect 6 0 12 0 empty;
#X connect 7 0 1 0 empty;
#X connect 7 0 6 0 empty;
#X connect 7 1 3 0 empty;
#X connect 8 0 1 1 empty;
#X connect 9 0 17 0 empty;
#X connect 11 0 12 0 empty;
#X connect 11 1 12 1 empty;
#X connect 12 0 14 0 empty;
#X connect 13 0 11 0 empty;
#X connect 14 0 10 0 empty;
#X connect 15 0 16 0 empty;
#X connect 16 0 13 0 empty;
#X connect 17 0 0 0 empty;
