#N canvas 835 741 1491 1028 12;
#X floatatom 311 39 5 0 0 0 - - - 0;
#X obj 293 452 audio_control, f 17;
#X obj 39 121 oscformat cues/selected/scenes/by_cell/col_1, f 17;
#X obj 311 67 change;
#X obj 335 228 bng 20 250 50 0 empty empty empty 17 7 0 10 #fcfcfc #000000 #000000;
#X obj 374 228 bng 22 250 50 0 empty empty empty 17 7 0 10 #fcfcfc #000000 #000000;
#X obj 232 806 tgl 15 0 empty empty empty 17 7 0 10 #fcfcfc #000000 #000000 0 1;
#X obj 256 806 send osc_madmap;
#X obj 485 528 tgl 15 0 empty empty empty 17 7 0 10 #fcfcfc #000000 #000000 0 1;
#X obj 502 564 send osc_madmap;
#X obj 654 340 send osc_madmap;
#X obj 39 189 send osc_madmap;
#X obj 94 561 tgl 15 0 empty empty empty 17 7 0 10 #fcfcfc #000000 #000000 0 1;
#X obj 111 604 send osc_madmap;
#X obj 532 807 tgl 15 0 empty empty empty 17 7 0 10 #fcfcfc #000000 #000000 0 1;
#X obj 551 802 send osc_madmap;
#X text 302 850 sensor 1;
#X text 549 594 sensor 2;
#X text 606 842 sensor 3;
#X text 195 643 sensor 4;
#X obj 232 832 sel 1 0;
#X msg 254 852 0, f 4;
#X obj 102 625 sel 1 0;
#X msg 130 659 0;
#X obj 480 584 sel 1 0;
#X msg 514 629 0, f 4;
#X obj 527 850 sel 1 0;
#X msg 551 889 0, f 4;
#X msg 293 313 0;
#X obj 295 228 bng 22 250 50 0 empty empty empty 17 7 0 10 #fcfcfc #000000 #000000;
#X msg 427 305 1, f 4;
#X msg 474 629 1;
#X msg 231 851 1;
#X obj 300 15 r idle;
#X obj 452 420 bng 31 250 50 0 empty empty empty 17 7 0 10 #fcfcfc #000000 #000000;
#X msg 98 644 1;
#N canvas 733 815 433 370 connection 0;
#X obj 46 191 netsend -u -b;
#X obj 68 149 r osc_madmap;
#X obj 47 65 loadbang;
#X msg 44 255 const 0;
#X obj 44 281 array define -yrange 0 1 sensorBool 12;
#X obj 38 97 inlet;
#X obj 164 60 inlet;
#X msg 80 97 connect 192.168.1.223 25100;
#X msg 47 126 disconnect 192.168.1.223 25100;
#X connect 1 0 0 0 empty;
#X connect 2 0 7 0 empty;
#X connect 3 0 4 0 empty;
#X connect 5 0 8 0 empty;
#X connect 6 0 7 0 empty;
#X connect 7 0 0 0 empty;
#X connect 8 0 0 0 empty;
#X restore 38 87 pd connection;
#N canvas 733 172 450 300 delay 0;
#X obj 165 73 loadbang;
#X obj 251 81 tgl 15 0 empty empty empty 17 7 0 10 #fcfcfc #000000 #000000 0 1;
#X obj 165 99 metro 33;
#X obj 165 118 array sum sensorBool;
#X obj 174 161 t a a;
#X obj 175 186 sel 0;
#X obj 203 265 v i;
#X msg 203 238 0;
#X obj 310 290 sel 0;
#X msg 309 314 0;
#X obj 205 211 t b a;
#X obj 175 292 expr i=i+1 \; if(i > 100 \, 0 \, 1);
#X floatatom 175 338 5 0 0 0 - - - 0;
#X obj 477 244 outlet;
#X obj 477 244 outlet;
#X connect 0 0 2 0 empty;
#X connect 1 0 2 0 empty;
#X connect 2 0 3 0 empty;
#X connect 3 0 4 0 empty;
#X connect 4 0 5 0 empty;
#X connect 5 0 11 0 empty;
#X connect 5 1 10 0 empty;
#X connect 7 0 6 0 empty;
#X connect 8 0 9 0 empty;
#X connect 9 0 14 0 empty;
#X connect 10 0 7 0 empty;
#X connect 10 1 13 0 empty;
#X connect 11 0 12 0 empty;
#X connect 11 1 8 0 empty;
#X restore 343 15 pd delay;
#X obj 96 520 sensor_parser 25004 4;
#X obj 485 480 sensor_parser 25002 2;
#X obj 527 712 sensor_parser 25003 3;
#X obj 234 720 sensor_parser 25001 1;
#N canvas 733 172 450 300 climax 0;
#X obj 55 240 send osc_madmap;
#X msg 195 245 1, f 4;
#X obj 180 131 t b b b b;
#X obj 180 85 inlet;
#X obj 227 209 outlet;
#X obj 195 322 outlet;
#X text 270 208 kill all sound;
#X text 201 344 start climax sound;
#X text 51 264 start climax mdm;
#X obj 320 270 bng 30 250 50 0 empty empty empty 17 7 0 10 #fcfcfc #000000 #000000;
#X obj 692 347 t a b;
#X obj 397 368 bng 15 250 50 0 empty empty empty 17 7 0 10 #fcfcfc #000000 #000000;
#X msg 346 309 0;
#X msg 370 405 1;
#X obj 307 441 tgl 17 0 empty empty empty 0 -6 0 8 #fcfcfc #000000 #000000 0 1;
#X obj 303 515 send climax_spigot;
#X obj 463 371 loadbang;
#X obj 55 180 oscformat cues/selected/scenes/by_cell/col_1, f 19;
#X obj 425 460 select 1;
#X obj 440 515 outlet;
#X obj 656 294 delay 73 1 sec, f 10;
#X obj 405 322 inlet;
#X connect 1 0 5 0 empty;
#X connect 2 0 17 0 32.................D....L5+++OA....i9+++y.....;
#X connect 2 1 1 0 empty;
#X connect 2 2 9 0 32.................cA...zF...PW....sA...bG....;
#X connect 2 3 4 0 empty;
#X connect 3 0 2 0 empty;
#X connect 9 0 12 0 32.................E....nA...PA....Z....n.....;
#X connect 11 0 13 0 empty;
#X connect 12 0 14 0 empty;
#X connect 13 0 14 0 empty;
#X connect 14 0 15 0 empty;
#X connect 14 0 18 0 empty;
#X connect 16 0 13 0 empty;
#X connect 17 0 0 0 empty;
#X connect 18 0 19 0 empty;
#X connect 21 0 11 0 empty;
#X restore 324 320 pd climax;
#X msg 257 313 1, f 4;
#X msg 470 305 0;
#X obj 522 320 t a;
#X obj 521 379 line;
#X msg 522 350 \$1 1000;
#X obj 521 445 send osc_madmap;
#X obj 654 277 oscformat cues/selected/scenes/by_cell/col_2, f 20;
#X msg 335 379 0;
#N canvas 733 172 450 300 bundle_quad_eveil 0;
#X obj 75 255 oscformat surfaces/Eveil_-_Poteau_EXT/opacity, f 19;
#X obj 75 210 inlet;
#X obj 75 330 outlet;
#X obj 250 255 oscformat surfaces/Eveil_-_DMX/opacity, f 26;
#X connect 0 0 2 0 empty;
#X connect 1 0 0 0 empty;
#X connect 1 0 3 0 empty;
#X connect 3 0 2 0 empty;
#X restore 521 410 pd bundle_quad_eveil;
#X obj 38 370 t a;
#X obj 37 429 line;
#X msg 38 400 \$1 1000;
#X obj 31 490 send osc_madmap;
#N canvas 733 172 450 300 bundle_quad_idle 0;
#X obj 50 100 oscformat surfaces/Idle_-_Poteau_EXT/opacity, f 19;
#X obj 195 107 oscformat surfaces/Idle_-_DMX/opacity, f 19;
#X obj 50 55 inlet;
#X obj 55 175 outlet;
#X connect 0 0 3 0 empty;
#X connect 1 0 3 0 empty;
#X connect 2 0 0 0 empty;
#X connect 2 0 1 0 empty;
#X restore 37 460 pd bundle_quad_idle;
#X obj 420 270 t b b;
#X obj 268 275 t b b;
#X obj 37 335 change;
#X obj 519 290 change;
#X obj 654 244 change;
#X msg 374 288 0;
#X obj 247 105 bng 28 250 50 0 empty empty empty 17 7 0 10 #fdfdfd #000000 #000000;
#X obj 734 244 loadbang;
#X obj 475 63 t a b;
#X obj 523 74 bng 15 250 50 0 empty empty empty 17 7 0 10 #fcfcfc #000000 #000000;
#X msg 475 30 0;
#X msg 512 98 1;
#X obj 478 95 tgl 17 0 empty empty empty 0 -6 0 8 #fcfcfc #000000 #000000 0 1;
#X obj 558 93 loadbang;
#X obj 325 172 spigot;
#X text 171 78 after cimax bang;
#X obj 247 140 t b b;
#X obj 247 205 s recet_bang;
#X obj 74 891 sel 0 1;
#X obj 209 937 onebang;
#X obj 161 877 bng 25 250 50 0 empty empty empty 17 7 0 10 #191919 #ffffff #ffffff;
#X obj 240 899 bng 25 250 50 0 empty empty empty 17 7 0 10 #191919 #ffffff #ffffff;
#X obj 166 978 bng 25 250 50 0 empty empty empty 17 7 0 10 #191919 #ffffff #ffffff;
#X obj 223 1012 delay 1000;
#X obj 232 975 bng 25 250 50 0 empty empty empty 17 7 0 10 #191919 #ffffff #ffffff;
#X obj 223 1042 bng 25 250 50 0 empty empty empty 17 7 0 10 #191919 #ffffff #ffffff;
#X msg 266 975 stop;
#X msg 68 807 1;
#X msg 26 801 0;
#X msg 527 889 1;
#X obj 808 430 netsend -u -b;
#X obj 984 379 loadbang;
#X obj 679 139 netsend -u -b;
#X msg 817 96 connect localhost 50000;
#X msg 809 139 disconnect localhost 50000;
#X obj 987 67 loadbang;
#X obj 786 350 oscformat nombre_personne, f 19;
#X msg 984 405 connect 192.168.1.255 50000;
#X msg 984 425 disconnect 192.168.1.255 50000;
#X obj 787 575 oscparse;
#X listbox 833 610 28 0 0 0 - - - 8;
#X obj 798 654 hsl 128 17 0 1 0 0 empty empty empty -2 -8 0 10 #191919 #ffffff #ffffff 0 1;
#X obj 787 520 netreceive -u -b 40002;
#X msg 787 616 \$2;
#X obj 1050 575 oscparse;
#X listbox 1096 610 28 0 0 0 - - - 8;
#X msg 1050 616 \$2;
#X obj 1050 520 netreceive -u -b 40009;
#X obj 1049 690 select 1 2 3;
#X obj 1049 660 change;
#X msg 965 288 1;
#X msg 1035 287 3;
#X msg 1001 287 2;
#X obj 964 322 oscformat state, f 19;
#X obj 798 740 oscformat surfaces/Luminosité/opacity, f 19;
#X obj 801 790 send osc_madmap;
#X obj 958 705 print;
#X obj 819 683 oscformat lightness;
#X obj 870 985 netsend -u -b;
#X obj 977 741 netreceive -u -b 40003;
#X obj 977 768 oscparse;
#X msg 977 798 \$2;
#X obj 977 833 tgl 25 0 empty empty empty 17 7 0 10 #191919 #ffffff #ffffff 0 1;
#X obj 1149 985 loadbang;
#X obj 868 951 oscformat on_off, f 19;
#X msg 979 1014 connect 192.168.1.255 50000;
#X msg 971 1057 disconnect 192.168.1.255 50000;
#X msg 1094 967 0;
#X msg 1055 972 1;
#X obj 1035 899 select 0 1;
#X floatatom 1052 807 5 0 0 0 - - - 12;
#X obj 945 918 s off;
#X obj 39 53 r off;
#X obj 1016 864 change;
#X obj 1137 959 s on;
#X obj 108 53 r on;
#X obj 1123 924 t a b;
#X obj 1037 930 t b a;
#X obj 880 205 oscparse;
#X msg 880 238 \$2;
#X obj 879 172 netreceive -u -b 40010;
#X obj 1051 205 oscparse;
#X msg 1051 238 \$2;
#X obj 1050 172 netreceive -u -b 40011;
#X obj 1142 277 oscparse;
#X msg 1142 310 \$2;
#X obj 1141 244 netreceive -u -b 40012;
#X obj 973 513 oscparse;
#X msg 973 546 \$2;
#X obj 972 480 netreceive -u -b 40013;
#X obj 157 549 oscformat /surfaces/Eveil_-_Tube_Opal/opacity, f 19;
#X obj 573 510 oscformat /surfaces/Eveil_-__Bande_LED/opacity, f 19;
#X obj 606 743 oscformat /surfaces/Eveil_-_Festoon/opacity, f 19;
#X obj 319 751 oscformat /surfaces/Eveil_-_Boules/opacity, f 19;
#X obj 311 87 sel 0 4;
#X msg 702 543 1;
#X obj 523 30 delay 60 1 sec, f 10;
#X connect 0 0 3 0 empty;
#X connect 0 0 93 0 empty;
#X connect 1 0 42 1 64.................e....D9++++G....g++++u8++++Y....a++++eF...PZ++++KA...j1++++R....o8+++C;
#X connect 2 0 11 0 empty;
#X connect 3 0 151 0 empty;
#X connect 4 0 57 0 empty;
#X connect 4 0 109 0 empty;
#X connect 5 0 62 0 empty;
#X connect 5 0 42 0 empty;
#X connect 5 0 108 0 empty;
#X connect 6 0 20 0 empty;
#X connect 8 0 24 0 empty;
#X connect 12 0 22 0 empty;
#X connect 14 0 26 0 empty;
#X connect 20 0 32 0 empty;
#X connect 20 1 21 0 empty;
#X connect 21 0 1 3 empty;
#X connect 22 0 35 0 empty;
#X connect 22 1 23 0 empty;
#X connect 23 0 1 2 empty;
#X connect 24 0 31 0 empty;
#X connect 24 1 25 0 empty;
#X connect 25 0 1 6 empty;
#X connect 26 0 86 0 empty;
#X connect 26 1 27 0 empty;
#X connect 27 0 1 4 empty;
#X connect 28 0 60 0 empty;
#X connect 28 0 1 1 empty;
#X connect 29 0 58 0 empty;
#X connect 29 0 107 0 empty;
#X connect 30 0 60 0 empty;
#X connect 30 0 61 0 empty;
#X connect 30 0 1 1 empty;
#X connect 31 0 1 6 empty;
#X connect 32 0 1 3 empty;
#X connect 33 0 29 0 empty;
#X connect 34 0 1 7 empty;
#X connect 35 0 1 2 empty;
#X connect 37 0 0 0 empty;
#X connect 37 1 0 0 empty;
#X connect 38 0 12 0 empty;
#X connect 38 1 147 0 empty;
#X connect 39 0 8 0 empty;
#X connect 39 1 148 0 empty;
#X connect 40 0 14 0 empty;
#X connect 40 1 149 0 empty;
#X connect 41 0 6 0 empty;
#X connect 41 1 150 0 empty;
#X connect 42 0 1 0 empty;
#X connect 42 1 1 7 empty;
#X connect 42 2 50 0 empty;
#X connect 42 2 63 0 64.................Y....n1+++eF....p8+++my+++uZ++++47+++q1+++eG++++H9+++2w+++Oh++++V7+++C;
#X connect 43 0 59 0 empty;
#X connect 43 0 61 0 empty;
#X connect 43 0 1 5 empty;
#X connect 44 0 59 0 empty;
#X connect 44 0 1 5 empty;
#X connect 45 0 47 0 empty;
#X connect 46 0 51 0 empty;
#X connect 47 0 46 0 empty;
#X connect 49 0 10 0 empty;
#X connect 50 0 1 0 empty;
#X connect 51 0 48 0 empty;
#X connect 52 0 54 0 empty;
#X connect 53 0 56 0 empty;
#X connect 54 0 53 0 empty;
#X connect 56 0 55 0 empty;
#X connect 57 0 30 0 empty;
#X connect 57 1 44 0 empty;
#X connect 58 0 43 0 empty;
#X connect 58 1 28 0 empty;
#X connect 59 0 52 0 empty;
#X connect 60 0 45 0 empty;
#X connect 61 0 49 0 empty;
#X connect 62 0 61 0 empty;
#X connect 63 0 73 0 empty;
#X connect 63 0 74 0 empty;
#X connect 63 0 49 0 empty;
#X connect 64 0 49 0 empty;
#X connect 65 0 69 0 empty;
#X connect 65 1 153 0 empty;
#X connect 66 0 68 0 empty;
#X connect 67 0 65 0 empty;
#X connect 68 0 69 0 empty;
#X connect 69 0 71 1 empty;
#X connect 70 0 68 0 empty;
#X connect 71 0 5 0 empty;
#X connect 73 0 3 0 empty;
#X connect 73 1 67 0 empty;
#X connect 76 0 79 0 empty;
#X connect 76 0 81 0 empty;
#X connect 77 0 76 0 empty;
#X connect 78 0 76 1 empty;
#X connect 80 0 82 0 empty;
#X connect 80 0 78 0 empty;
#X connect 81 0 80 0 empty;
#X connect 83 0 80 0 empty;
#X connect 84 0 75 0 empty;
#X connect 85 0 75 0 empty;
#X connect 86 0 1 4 empty;
#X connect 88 0 94 0 empty;
#X connect 90 0 89 0 48......................T7+++O.....E++++GA...vc++++Q....b2++++E....;
#X connect 91 0 89 0 48.................o++++27+++e5++++M++++K9++++e++++h+++++2+++e6++++;
#X connect 92 0 90 0 empty;
#X connect 93 0 87 0 empty;
#X connect 94 0 87 0 48......................T7+++O.....E++++29+++uS++++s++++6z+++e6++++;
#X connect 95 0 87 0 48......................T7+++O.....E++++m8+++uS++++Y++++6z+++e1++++;
#X connect 96 0 97 0 empty;
#X connect 96 0 100 0 empty;
#X connect 98 0 111 0 empty;
#X connect 98 0 114 0 empty;
#X connect 99 0 96 0 empty;
#X connect 100 0 98 0 empty;
#X connect 101 0 102 0 empty;
#X connect 101 0 103 0 empty;
#X connect 103 0 106 0 empty;
#X connect 104 0 101 0 empty;
#X connect 105 0 29 0 empty;
#X connect 105 1 5 0 empty;
#X connect 105 2 4 0 empty;
#X connect 106 0 105 0 empty;
#X connect 107 0 110 0 empty;
#X connect 108 0 110 0 empty;
#X connect 109 0 110 0 empty;
#X connect 110 0 87 0 empty;
#X connect 111 0 112 0 empty;
#X connect 114 0 87 0 48.................N....b6+++uC....29+++Kt+++u8++++h6+++a++++O79+++;
#X connect 114 0 113 0 empty;
#X connect 116 0 117 0 empty;
#X connect 117 0 118 0 empty;
#X connect 118 0 119 0 empty;
#X connect 119 0 121 0 empty;
#X connect 119 0 130 0 empty;
#X connect 120 0 122 0 empty;
#X connect 121 0 115 0 empty;
#X connect 122 0 115 0 48......................T7+++O.....E++++29+++uS++++s++++6z+++e6++++;
#X connect 123 0 115 0 48.................o++++27+++e5++++M++++K7+++Om++++B++++y4+++eo++++;
#X connect 124 0 98 0 empty;
#X connect 125 0 98 0 empty;
#X connect 126 0 134 0 empty;
#X connect 126 1 133 0 empty;
#X connect 129 0 36 0 empty;
#X connect 130 0 126 0 empty;
#X connect 132 0 36 1 empty;
#X connect 133 0 124 0 empty;
#X connect 133 1 131 0 empty;
#X connect 134 0 128 0 empty;
#X connect 134 1 125 0 empty;
#X connect 135 0 136 0 empty;
#X connect 136 0 29 0 empty;
#X connect 137 0 135 0 empty;
#X connect 138 0 139 0 empty;
#X connect 139 0 4 0 empty;
#X connect 140 0 138 0 empty;
#X connect 141 0 142 0 empty;
#X connect 142 0 5 0 empty;
#X connect 143 0 141 0 empty;
#X connect 144 0 145 0 empty;
#X connect 145 0 34 0 empty;
#X connect 146 0 144 0 empty;
#X connect 147 0 13 0 empty;
#X connect 148 0 9 0 empty;
#X connect 149 0 15 0 empty;
#X connect 150 0 7 0 empty;
#X connect 151 0 29 0 empty;
#X connect 151 1 71 0 empty;
#X connect 151 2 4 0 empty;
#X connect 152 0 148 0 empty;
#X connect 153 0 66 0 empty;
