#N canvas 722 291 1198 789 12;
#X obj 508 58 hsl 128 15 0 1 0 0 empty empty empty -2 -8 0 10 #fcfcfc #000000 #000000 0 1;
#X floatatom 508 88 9 0 0 0 - - - 12;
#X obj 508 242 tgl 15 0 empty empty empty 17 7 0 10 #fcfcfc #000000 #000000 0 1;
#X obj 516 369 expr sensorBool[\$2] = $f1;
#X obj 508 269 change;
#X obj 521 311 tgl 15 0 empty empty empty 17 7 0 10 #fcfcfc #000000 #000000 0 1;
#X obj 761 430 outlet;
#X obj 765 170 tgl 15 0 empty empty empty 17 7 0 10 #fcfcfc #000000 #000000 0 1;
#X obj 762 340 t a;
#X obj 761 399 line;
#X obj 575 311 outlet;
#X msg 763 372 \$1 1000;
#X obj 107 167 oscparse;
#X listbox 223 266 30 0 0 0 - - - 0;
#X obj 107 211 list trim;
#X obj 107 240 route sonar;
#X floatatom 110 320 5 0 0 0 - - - 12;
#X obj 82 167 bng 20 250 50 0 empty empty empty 0 -10 0 12 #fcfcfc #000000 #000000;
#X obj 168 353 bng 20 250 50 0 empty empty empty 0 -10 0 12 #fcfcfc #000000 #000000;
#X obj 244 356 route \$2;
#X obj 107 25 netreceive -u -b \$1;
#N canvas 0 50 450 250 (subpatch) 0;
#X array sonar\$2 100 float 0;
#X coords 0 1 99 0 238 263 1;
#X restore 201 635 graph;
#X floatatom 589 503 5 0 0 0 - - - 12;
#X obj 592 541 bng 20 250 50 0 empty empty empty 0 -10 0 12 #fcfcfc #000000 #000000;
#X obj 620 540 abs_toarray sonar3;
#X obj 495 517 print;
#X obj 589 473 f;
#X obj 762 735 abs_toarray sonar1;
#X obj 60 480 v i\$0;
#X obj 107 400 expr i\$0=i\$0+1 \; if (i\$0>size("sonar\$2") \, i\$0=0 \, i\$0=i\$0) \; sonar\$2[i\$0]=$f1;
#X msg 107 275 \$2;
#X obj 124 88 spigot 1;
#X obj 255 58 r climax_spigot;
#X obj 255 105 tgl 17 0 empty empty empty 0 -6 0 8 #fcfcfc #000000 #000000 0 1;
#X obj 507 136 expr $f1>0.05 \; $f1<=0.05;
#X obj 716 90 s debounce_time;
#X floatatom 715 56 10 0 0 0 - - - 16;
#X msg 763 299 0;
#X obj 765 197 sel 0 1;
#X obj 804 268 bng 15 250 50 0 empty empty empty 17 7 0 10 #fcfcfc #000000 #000000;
#X obj 830 268 bng 15 250 50 0 empty empty empty 17 7 0 10 #fcfcfc #000000 #000000;
#X msg 804 299 1;
#X obj 555 220 r recet_bang;
#X connect 0 0 1 0 empty;
#X connect 1 0 34 0 empty;
#X connect 2 0 4 0 empty;
#X connect 4 0 5 0 empty;
#X connect 4 0 10 0 empty;
#X connect 5 0 3 0 empty;
#X connect 7 0 38 0 empty;
#X connect 8 0 11 0 empty;
#X connect 9 0 6 0 empty;
#X connect 11 0 9 0 empty;
#X connect 12 0 14 0 empty;
#X connect 12 0 17 0 empty;
#X connect 12 0 13 0 48.................M....nC...PC....5....nA....c....Z....PG...vS....;
#X connect 14 0 15 0 empty;
#X connect 15 0 30 0 empty;
#X connect 16 0 18 0 empty;
#X connect 16 0 29 0 empty;
#X connect 16 0 0 0 empty;
#X connect 19 0 26 0 empty;
#X connect 20 0 31 0 empty;
#X connect 22 0 23 0 empty;
#X connect 22 0 24 0 empty;
#X connect 26 0 22 0 empty;
#X connect 30 0 16 0 empty;
#X connect 31 0 12 0 48.................t.........fK.........rC....7++++6.....+++++N....;
#X connect 32 0 33 0 empty;
#X connect 33 0 31 1 empty;
#X connect 34 0 7 0 empty;
#X connect 34 0 2 0 empty;
#X connect 36 0 35 0 empty;
#X connect 37 0 8 0 empty;
#X connect 38 0 39 0 empty;
#X connect 38 0 37 0 empty;
#X connect 38 1 41 0 empty;
#X connect 38 1 40 0 empty;
#X connect 41 0 8 0 empty;
#X connect 42 0 4 0 empty;
